<svg width="1593" height="665" viewBox="0 0 1593 665" fill="none" xmlns="http://www.w3.org/2000/svg">
<path d="M1405.17 447.365V273.775H1533.72V157.512H1405.17V0.8125L1265.36 22.9683V449.266C1265.36 481.147 1268.28 510.25 1274.28 536.5C1280.2 562.751 1290.66 585.126 1305.72 603.553C1320.71 621.979 1340.75 636.384 1365.76 646.694C1390.76 657.004 1422.35 662.196 1460.52 662.196C1490.57 662.196 1515.87 659.71 1536.49 654.664C1557.11 649.692 1575.91 643.696 1592.8 636.823L1573.05 528.018C1559.89 533.063 1545.41 536.939 1529.4 539.718C1513.46 542.496 1497.96 543.959 1482.97 543.959C1451.67 543.959 1430.91 535.184 1420.6 517.708C1410.29 500.232 1405.17 476.76 1405.17 447.365Z" fill="white"/>
<path d="M400.332 650.935C426.071 596.606 451.517 540.01 476.525 481.22C501.532 422.431 525.297 364.299 547.818 306.753C570.34 249.206 591.033 194.219 610.045 141.791C628.983 89.2163 645.728 42.2724 660.279 0.8125L504.457 0.8125C492.246 38.6894 478.645 79.2718 463.802 122.633C448.885 166.067 433.749 209.355 418.32 252.423C402.892 295.565 387.902 336.806 373.424 376.291C358.946 415.777 345.564 449.778 333.353 478.296C320.411 449.559 306.81 415.484 292.698 375.999C278.512 336.513 263.742 295.199 248.313 252.131C232.884 209.062 217.675 165.774 202.758 122.413C187.842 78.9793 174.314 38.47 162.176 0.8125L0.796875 0.8125C14.6168 42.053 30.996 88.997 50.0076 141.571C69.0192 194.146 89.7857 249.133 112.453 306.606C135.121 364.08 159.032 422.211 184.185 480.928C209.339 539.644 234.859 596.314 260.744 650.935H400.332Z" fill="white"/>
<path d="M1219.22 0.8125L1079.41 22.9683V650.935H1219.22V0.8125Z" fill="white"/>
<path d="M1040.36 410.732C1040.36 270.851 926.953 157.439 787.072 157.439C729.379 157.439 676.22 176.744 633.663 209.136C621.817 240.798 609.387 273.264 596.298 306.607C577.433 354.721 557.763 403.347 537.143 452.338C557.105 572.477 661.376 664.025 787.072 664.025C926.953 664.025 1040.36 550.613 1040.36 410.732ZM913.572 410.732C913.572 479.978 857.414 536.135 788.168 536.135C718.922 536.135 662.765 479.978 662.765 410.732C662.765 341.486 718.922 285.329 788.168 285.329C857.414 285.329 913.572 341.486 913.572 410.732Z" fill="white"/>
</svg>
