
<svg width="1593" height="664" viewBox="0 0 1593 664" fill="none" xmlns="http://www.w3.org/2000/svg">
<path d="m 1405.17 446.58 v -173.59 h 128.55 v -116.263 h -128.55 v -156.6997 l -139.81 22.1558 v 426.2979 c 0 31.881 2.92 60.983 8.92 87.234 c 5.92 26.251 16.38 48.626 31.44 67.052 c 14.99 18.427 35.03 32.832 60.04 43.142 c 25 10.31 56.59 15.502 94.76 15.502 c 30.05 0 55.35 -2.486 75.97 -7.532 c 20.62 -4.972 39.42 -10.968 56.31 -17.841 l -19.75 -108.805 c -13.16 5.045 -27.64 8.921 -43.65 11.699 c -15.94 2.779 -31.44 4.241 -46.43 4.241 c -31.3 0 -52.06 -8.774 -62.37 -26.25 c -10.31 -17.476 -15.43 -40.948 -15.43 -70.343 z" fill="#502379"/>
<path d="m 400.332 650.15 c 25.739 -54.329 51.185 -110.925 76.193 -169.715 c 25.007 -58.789 48.772 -116.921 71.293 -174.468 c 22.522 -57.546 43.215 -112.533 62.227 -164.962 c 18.938 -52.5738 35.683 -99.5178 50.234 -140.9777 l -155.822 0 c -12.211 37.877 -25.812 78.4594 -40.655 121.8207 c -14.917 43.434 -30.053 86.722 -45.482 129.79 c -15.428 43.142 -30.418 84.382 -44.896 123.868 c -14.478 39.486 -27.86 73.487 -40.071 102.004 c -12.942 -28.736 -26.543 -62.811 -40.655 -102.297 c -14.186 -39.485 -28.956 -80.799 -44.385 -123.867 c -15.429 -43.069 -30.638 -86.357 -45.555 -129.718 c -14.916 -43.4338 -28.444 -83.9431 -40.582 -121.6007 l -161.3791 0 c 13.8199 41.2405 30.1991 88.1845 49.2107 140.7587 c 19.0116 52.574 39.7781 107.562 62.4454 165.035 c 22.668 57.474 46.579 115.605 71.732 174.322 c 25.154 58.716 50.674 115.385 76.559 170.007 h 139.588 z" fill="#502379"/>
<path d="m 1219.22 0.0273 l -139.81 22.1558 v 627.9669 h 139.81 v -650.1227 z" fill="#502379"/>
<path d="m 1040.36 409.947 c 0 -139.881 -113.407 -253.293 -253.288 -253.293 c -57.693 0 -110.852 19.304 -153.409 51.697 c -11.846 31.662 -24.276 64.128 -37.365 97.471 c -18.865 48.114 -38.535 96.74 -59.155 145.731 c 19.962 120.139 124.233 211.687 249.929 211.687 c 139.881 0 253.288 -113.412 253.288 -253.293 z m -126.788 0 c 0 69.246 -56.158 125.403 -125.404 125.403 c -69.246 0 -125.403 -56.157 -125.403 -125.403 c 0 -69.246 56.157 -125.403 125.403 -125.403 c 69.246 0 125.404 56.157 125.404 125.403 z" fill="#502379"/>
</svg>
